REM DIRINDEX 1\2\6,1\2\7,1\2\8,1\2\9,1\3\10,1\3\11,1\4\12,1\4\13,1\4\14,1\5\15,1\5\16,1\5\17
REM DIRNAME cjc029,folder01,folder02,folder03,folder04,folder05,folder06,folder07,folder08,folder09,folder10,folder11,folder12,folder13,folder14,folder15,folder16
TITLE ""
FILE "1400_3_sec05_0449_0466.mp3" MP3
  TRACK 01 AUDIO
    TITLE "0:"
    INDEX 01 00:00:00
  TRACK 02 AUDIO
    TITLE "17:cjc029_5328"
    INDEX 01 00:00:15
  TRACK 03 AUDIO
    TITLE "0:"
    INDEX 01 00:02:67
  TRACK 04 AUDIO
    TITLE "16:cjc029_5329"
    INDEX 01 00:02:73
  TRACK 05 AUDIO
    TITLE "0:"
    INDEX 01 00:03:74
  TRACK 06 AUDIO
    TITLE "17:cjc029_5330"
    INDEX 01 00:04:58
  TRACK 07 AUDIO
    TITLE "0:"
    INDEX 01 00:05:73
  TRACK 08 AUDIO
    TITLE "16:cjc029_5331"
    INDEX 01 00:06:02
  TRACK 09 AUDIO
    TITLE "0:"
    INDEX 01 00:07:09
  TRACK 10 AUDIO
    TITLE "17:cjc029_5332"
    INDEX 01 00:07:70
  TRACK 11 AUDIO
    TITLE "0:"
    INDEX 01 00:09:14
  TRACK 12 AUDIO
    TITLE "16:cjc029_5333"
    INDEX 01 00:09:20
  TRACK 13 AUDIO
    TITLE "0:"
    INDEX 01 00:10:53
  TRACK 14 AUDIO
    TITLE "17:cjc029_5334"
    INDEX 01 00:11:37
  TRACK 15 AUDIO
    TITLE "0:"
    INDEX 01 00:12:52
  TRACK 16 AUDIO
    TITLE "16:cjc029_5335"
    INDEX 01 00:12:58
  TRACK 17 AUDIO
    TITLE "0:"
    INDEX 01 00:13:57
  TRACK 18 AUDIO
    TITLE "17:cjc029_5336"
    INDEX 01 00:14:39
  TRACK 19 AUDIO
    TITLE "0:"
    INDEX 01 00:16:32
  TRACK 20 AUDIO
    TITLE "16:cjc029_5337"
    INDEX 01 00:16:38
  TRACK 21 AUDIO
    TITLE "0:"
    INDEX 01 00:17:49
  TRACK 22 AUDIO
    TITLE "17:cjc029_5338"
    INDEX 01 00:18:33
  TRACK 23 AUDIO
    TITLE "0:"
    INDEX 01 00:20:32
  TRACK 24 AUDIO
    TITLE "16:cjc029_5339"
    INDEX 01 00:20:39
  TRACK 25 AUDIO
    TITLE "0:"
    INDEX 01 00:21:41
  TRACK 26 AUDIO
    TITLE "17:cjc029_5340"
    INDEX 01 00:22:25
  TRACK 27 AUDIO
    TITLE "0:"
    INDEX 01 00:23:38
  TRACK 28 AUDIO
    TITLE "16:cjc029_5341"
    INDEX 01 00:23:44
  TRACK 29 AUDIO
    TITLE "0:"
    INDEX 01 00:24:51
  TRACK 30 AUDIO
    TITLE "17:cjc029_5342"
    INDEX 01 00:25:33
  TRACK 31 AUDIO
    TITLE "0:"
    INDEX 01 00:26:48
  TRACK 32 AUDIO
    TITLE "16:cjc029_5343"
    INDEX 01 00:26:54
  TRACK 33 AUDIO
    TITLE "0:"
    INDEX 01 00:28:00
  TRACK 34 AUDIO
    TITLE "17:cjc029_5344"
    INDEX 01 00:28:59
  TRACK 35 AUDIO
    TITLE "0:"
    INDEX 01 00:29:54
  TRACK 36 AUDIO
    TITLE "16:cjc029_5345"
    INDEX 01 00:29:58
  TRACK 37 AUDIO
    TITLE "0:"
    INDEX 01 00:30:63
  TRACK 38 AUDIO
    TITLE "17:cjc029_5346"
    INDEX 01 00:31:49
  TRACK 39 AUDIO
    TITLE "0:"
    INDEX 01 00:34:30
  TRACK 40 AUDIO
    TITLE "16:cjc029_5347"
    INDEX 01 00:34:36
  TRACK 41 AUDIO
    TITLE "0:"
    INDEX 01 00:35:49
  TRACK 42 AUDIO
    TITLE "17:cjc029_5348"
    INDEX 01 00:36:31
  TRACK 43 AUDIO
    TITLE "0:"
    INDEX 01 00:38:41
  TRACK 44 AUDIO
    TITLE "16:cjc029_5349"
    INDEX 01 00:38:45
  TRACK 45 AUDIO
    TITLE "0:"
    INDEX 01 00:39:51
  TRACK 46 AUDIO
    TITLE "17:cjc029_5350"
    INDEX 01 00:40:36
  TRACK 47 AUDIO
    TITLE "0:"
    INDEX 01 00:41:22
  TRACK 48 AUDIO
    TITLE "16:cjc029_5351"
    INDEX 01 00:41:26
  TRACK 49 AUDIO
    TITLE "0:"
    INDEX 01 00:42:33
  TRACK 50 AUDIO
    TITLE "17:cjc029_5352"
    INDEX 01 00:43:19
  TRACK 51 AUDIO
    TITLE "0:"
    INDEX 01 00:44:26
  TRACK 52 AUDIO
    TITLE "16:cjc029_5353"
    INDEX 01 00:44:32
  TRACK 53 AUDIO
    TITLE "0:"
    INDEX 01 00:45:45
  TRACK 54 AUDIO
    TITLE "17:cjc029_5354"
    INDEX 01 00:46:29
  TRACK 55 AUDIO
    TITLE "0:"
    INDEX 01 00:47:40
  TRACK 56 AUDIO
    TITLE "16:cjc029_5355"
    INDEX 01 00:47:46
  TRACK 57 AUDIO
    TITLE "0:"
    INDEX 01 00:48:69
  TRACK 58 AUDIO
    TITLE "17:cjc029_5356"
    INDEX 01 00:49:53
  TRACK 59 AUDIO
    TITLE "0:"
    INDEX 01 00:50:54
  TRACK 60 AUDIO
    TITLE "16:cjc029_5357"
    INDEX 01 00:50:58
  TRACK 61 AUDIO
    TITLE "0:"
    INDEX 01 00:52:18
  TRACK 62 AUDIO
    TITLE "17:cjc029_5358"
    INDEX 01 00:53:04
  TRACK 63 AUDIO
    TITLE "0:"
    INDEX 01 00:54:21
  TRACK 64 AUDIO
    TITLE "16:cjc029_5359"
    INDEX 01 00:54:27
  TRACK 65 AUDIO
    TITLE "0:"
    INDEX 01 00:55:34
  TRACK 66 AUDIO
    TITLE "17:cjc029_5360"
    INDEX 01 00:56:20
  TRACK 67 AUDIO
    TITLE "0:"
    INDEX 01 00:58:44
  TRACK 68 AUDIO
    TITLE "16:cjc029_5361"
    INDEX 01 00:58:46
  TRACK 69 AUDIO
    TITLE "0:"
    INDEX 01 00:59:59
  TRACK 70 AUDIO
    TITLE "17:cjc029_5362"
    INDEX 01 01:00:39
  TRACK 71 AUDIO
    TITLE "0:"
    INDEX 01 01:01:58
  TRACK 72 AUDIO
    TITLE "16:cjc029_5363"
    INDEX 01 01:01:62
  TRACK 73 AUDIO
    TITLE "0:"
    INDEX 01 01:03:16
